# xmcd
#
# Track frame offsets:
#	150
#	9242
#	20732
#	32692
#	44900
#	53397
#	65195
#	74252
#	88125
#	98972
#	109950
#	117150
#	128960
#	139510
#	150597
#	162475
#	175160
#	183375
#	195357
#	207210
#
# Disc length: 2881 seconds
#
# Revision: 0
# Processed by: cddbd v1.5.1PL0 Copyright (c) Steve Scherf et al.
# Submitted via: EasyCDDAExtractor 7.5.2.1
#
DISCID=190b3f14
DTITLE=Les Paul and Mary Ford - Their Greatest Hits and Finest Performances (D
DTITLE=isc 2)
DYEAR=1900
DGENRE=
TTITLE0=Whispering
TTITLE1=Carioca
TTITLE2=Goofus
TTITLE3=Walkin' and Whistlin' Blues
TTITLE4=Lady of Spain
TTITLE5=Sweet and Lovely
TTITLE6=South
TTITLE7=I Can't Get Started
TTITLE8=Mandolino
TTITLE9=Little Rock Getaway
TTITLE10=Jingle Bells
TTITLE11=Nola
TTITLE12=Twelfth Street Rag
TTITLE13=Mack the Knife
TTITLE14=Brazil
TTITLE15=Lover
TTITLE16=Meet Mister Callaghan
TTITLE17=What Is This Thing Called Love?
TTITLE18=The Kangaroo
TTITLE19=Josephine
EXTD=
EXTT0=
EXTT1=
EXTT2=
EXTT3=
EXTT4=
EXTT5=
EXTT6=
EXTT7=
EXTT8=
EXTT9=
EXTT10=
EXTT11=
EXTT12=
EXTT13=
EXTT14=
EXTT15=
EXTT16=
EXTT17=
EXTT18=
EXTT19=
PLAYORDER=
